<svg xmlns="http://www.w3.org/2000/svg" width="1062" height="318" fill="none" viewBox="0 0 1062 318"><path fill="#36ECD1" d="M196.42 75.11H86.11A20.16 20.16 0 0 0 66 95.28v85.66a20.16 20.16 0 0 0 20.11 20.16H119l18.7 37.4a6.5 6.5 0 0 0 5.805 3.588 6.49 6.49 0 0 0 5.805-3.588L168 201.1h28.42a20.17 20.17 0 0 0 20.17-20.16V95.28a20.18 20.18 0 0 0-20.17-20.17"/><path fill="#384042" d="M141.27 182a38.61 38.61 0 0 1-38.57-38.56 4.309 4.309 0 1 1 8.62 0 30 30 0 0 0 8.133 22.324 30 30 0 0 0 9.938 6.955 30 30 0 0 0 23.758 0 29.99 29.99 0 0 0 18.071-29.279 4.309 4.309 0 0 1 7.425-3.18 4.3 4.3 0 0 1 1.185 3.18A38.61 38.61 0 0 1 141.27 182m-34.26-63.17a5.04 5.04 0 1 0 0-10.08 5.04 5.04 0 0 0 0 10.08m68.52 0a5.04 5.04 0 1 0 0-10.08 5.04 5.04 0 0 0 0 10.08m68.9 81.81V81.54h23.44v47.91h54.51V81.54h23.44v119.1h-23.44v-50.87h-54.51v50.87zm156.62 2.08q-21.89 0-32.73-11.55T357.47 155q0-24.65 10.85-36.19 10.85-11.541 32.73-11.55 19.95 0 30.12 11.29t10.15 35.76v5.9h-61.45q.17 12.51 5.12 18.93c3.29 4.28 8.77 6.42 16.4 6.42 3.228.054 6.43-.597 9.38-1.91a14.74 14.74 0 0 0 6.51-5.64 17.5 17.5 0 0 0 2.34-9.46h21.7q0 11.799-5.29 19.35a31.35 31.35 0 0 1-14.41 11.2 55 55 0 0 1-20.57 3.62m-20.84-57.64h38.2q0-10.94-4.78-15.71t-12.58-4.78q-9.74 0-14.76 5t-6.08 15.49m73.42 55.56v-91.33h18.57l1.91 14.59h1.22a32.95 32.95 0 0 1 7.12-11.72q4.68-5 13-5c3.013.06 5.998.586 8.85 1.56v20.66h-6.4a25.06 25.06 0 0 0-12.41 2.78 17.07 17.07 0 0 0-7.38 8.33 34.6 34.6 0 0 0-2.43 13.89v46.19zm100.52 2.08q-21.87 0-32.73-11.55T510.57 155q0-24.65 10.85-36.19 10.85-11.541 32.73-11.55 20 0 30.12 11.29t10.16 35.76v5.9H533q.16 12.51 5.12 18.93t16.41 6.42a22.1 22.1 0 0 0 9.37-1.91 14.7 14.7 0 0 0 6.51-5.64 17.53 17.53 0 0 0 2.35-9.46h21.7q0 11.799-5.3 19.35a31.3 31.3 0 0 1-14.41 11.2 55 55 0 0 1-20.6 3.62m-20.83-57.64h38.19q0-10.94-4.77-15.71t-12.59-4.78q-9.72 0-14.76 5t-6.07 15.49M605 200.64v-6.08a35.53 35.53 0 0 1 4.27-17.56 55.4 55.4 0 0 1 10.94-13.8 160 160 0 0 1 14.32-11.72q7.65-5.55 14.5-11.11a55.5 55.5 0 0 0 11.2-12 29.6 29.6 0 0 0 3.47-7.37 27 27 0 0 0 1.21-8.07 16.6 16.6 0 0 0-1.65-7 13.56 13.56 0 0 0-5.55-5.9 19.2 19.2 0 0 0-10-2.35 24.7 24.7 0 0 0-10.51 2 13.3 13.3 0 0 0-6.33 6 20.8 20.8 0 0 0-2.09 9.72v7.12h-21.85a38.4 38.4 0 0 1-.7-7q0-12.84 5.91-20.74a34.4 34.4 0 0 1 15.62-11.63 58.1 58.1 0 0 1 21-3.74 49.1 49.1 0 0 1 16.49 2.43 32.4 32.4 0 0 1 11.11 6.43 30.9 30.9 0 0 1 6.69 8.59 37 37 0 0 1 3.3 9.2c.592 2.711.91 5.475.95 8.25a40.7 40.7 0 0 1-3.73 17.71 51.8 51.8 0 0 1-9.9 14.06 107 107 0 0 1-13.19 11.37 394 394 0 0 1-13.46 9.46 73.5 73.5 0 0 0-10.76 8.68 20 20 0 0 0-2.43 2.52 15 15 0 0 0-1.74 2.69H688v19.8zm124.15 0v-99h-37.68v-20.1h98.79v20.13h-37.68v99z"/><path fill="#384042" d="M802.24 202.72a47 47 0 0 1-8.77-1 30 30 0 0 1-9.47-3.52 21 21 0 0 1-7.55-7.72q-3-5.11-3-13.46 0-12.32 7.2-19.27 7.2-6.951 20-9.81a134.2 134.2 0 0 1 29.25-2.86V138a19.5 19.5 0 0 0-1.13-6.86 9.32 9.32 0 0 0-4.25-4.86q-3.12-1.81-9-1.82c-4.16 0-7.41.49-9.72 1.48a10.24 10.24 0 0 0-4.86 3.64 8.1 8.1 0 0 0-1.39 4.43v2.43h-21.44a6.6 6.6 0 0 1-.18-1.65v-2.17q0-11.63 10.25-18.49t26.91-6.86q18.75 0 27.77 7.73t9 21.44v42.19c0 2.2.63 3.76 1.91 4.68a6.9 6.9 0 0 0 4.17 1.39h5.21v15.28a27.5 27.5 0 0 1-5 1.74c-2.673.628-5.414.92-8.16.87-4.06.126-8.06-.998-11.46-3.22a16.14 16.14 0 0 1-6.42-8.94h-1a33.6 33.6 0 0 1-11.29 8.94q-6.82 3.35-17.58 3.35m6.76-17.54c4.028.151 8.02-.807 11.54-2.77a17.8 17.8 0 0 0 7-7.56 24.7 24.7 0 0 0 2.34-11v-3.65a108 108 0 0 0-16.75 1.22 31.9 31.9 0 0 0-12.41 4.25 10.15 10.15 0 0 0-4.69 9.12 9.56 9.56 0 0 0 3.21 7.64q3.17 2.76 9.76 2.75m64.94 15.46V75.11h22v125.53zm39.93 0V75.11h22v72.22l31.94-38h25.7l-30.38 35.25 32.11 56.08H970l-21-39.94-13 12.68v27.26z"/></svg>