<svg xmlns="http://www.w3.org/2000/svg" width="294.392" height="464.857" viewBox="0 0 77.891 122.993"><path d="M114.42 197.404c.058-.058.126-.084.152-.058s-.02.074-.104.106c-.12.046-.13.036-.048-.048m2.454-2.314c3.118-3.053 4.995-5.167 7.222-8.132 6.101-8.125 10.133-17.581 11.263-26.416.16-1.246.178-1.712.14-3.471-.046-2.205-.179-3.455-.573-5.416-2.242-11.157-10.58-21.634-24.674-31.004-5.806-3.86-13.268-7.799-19.81-10.457-.79-.32-1.495-.573-1.566-.559s.767.71 1.861 1.546c12.807 9.797 22.245 19.005 28.594 27.898 6.542 9.164 9.503 18.026 8.271 24.754-.154.843-.605 2.3-.75 2.42-.177.147-4.927-.651-8.345-1.404-8.942-1.97-16.661-4.943-23.307-8.979-14.813-8.996-23.685-23.231-26.136-41.937-.53-4.038-.717-7.557-.652-12.234.091-6.581.702-12.24 2.048-18.965.546-2.73 1.63-7.126 2.032-8.241.024-.065.352.314.771.889 5.15 7.068 11.354 13.04 18.572 17.873 5.171 3.464 10.926 6.295 16.127 7.935 2.535.8 6.511 2.483 10.122 4.287 8.56 4.278 15.117 9.342 19.952 15.41 5.22 6.55 8.224 14.374 8.254 21.494.008 1.899-.136 5.983-.266 7.536-.823 9.803-3.979 18.869-9.413 27.034-2.365 3.554-4.67 6.353-7.9 9.592-3.097 3.105-5.608 5.238-8.936 7.589-1.79 1.264-4.779 3.113-5.033 3.113-.037 0 .922-.97 2.132-2.155" style="fill:#47a141;fill-opacity:1;stroke-width:.08466666" transform="translate(-68.4 -74.485)"/></svg>